<?xml version="1.0" encoding="UTF-8" standalone="no"?>
<!-- Created with Inkscape (http://www.inkscape.org/) -->

<svg
   xmlns:dc="http://purl.org/dc/elements/1.1/"
   xmlns:cc="http://creativecommons.org/ns#"
   xmlns:rdf="http://www.w3.org/1999/02/22-rdf-syntax-ns#"
   xmlns:svg="http://www.w3.org/2000/svg"
   xmlns="http://www.w3.org/2000/svg"
   xmlns:sodipodi="http://sodipodi.sourceforge.net/DTD/sodipodi-0.dtd"
   xmlns:inkscape="http://www.inkscape.org/namespaces/inkscape"
   width="744.09448819"
   height="1052.3622047"
   id="svg2"
   version="1.1"
   inkscape:version="0.48.4 r9939"
   sodipodi:docname="battery.svg">
  <defs
     id="defs4" />
  <sodipodi:namedview
     id="base"
     pagecolor="#ffffff"
     bordercolor="#666666"
     borderopacity="1.0"
     inkscape:pageopacity="0.0"
     inkscape:pageshadow="2"
     inkscape:zoom="0.98994949"
     inkscape:cx="336.17798"
     inkscape:cy="348.94956"
     inkscape:document-units="px"
     inkscape:current-layer="layer1"
     showgrid="false"
     inkscape:window-width="2495"
     inkscape:window-height="1416"
     inkscape:window-x="1985"
     inkscape:window-y="24"
     inkscape:window-maximized="1" />
  <metadata
     id="metadata7">
    <rdf:RDF>
      <cc:Work
         rdf:about="">
        <dc:format>image/svg+xml</dc:format>
        <dc:type
           rdf:resource="http://purl.org/dc/dcmitype/StillImage" />
        <dc:title></dc:title>
      </cc:Work>
    </rdf:RDF>
  </metadata>
  <g
     inkscape:label="Layer 1"
     inkscape:groupmode="layer"
     id="layer1">
    <g
       id="g3021"
       transform="translate(3.03269,89.90803)"
       inkscape:export-filename="/home/tomm/LudumDare27/images/battery1.png"
       inkscape:export-xdpi="36.59"
       inkscape:export-ydpi="36.59"
       style="stroke:#1b1b1b;stroke-opacity:1">
      <path
         sodipodi:nodetypes="ccsccc"
         inkscape:connector-curvature="0"
         id="path2987"
         d="m 301.62054,470.58929 c 0.51123,95.80423 -0.23438,193.02265 -1,288.1875 0,17.57359 38.45419,31.84375 85.875,31.84375 47.42081,0 80.48661,-14.27016 80.48661,-31.84375 0.57541,-95.036 2.32589,-192.84217 2.32589,-288.1875 z"
         style="fill:#9c9c9c;fill-opacity:1;stroke:#1b1b1b;stroke-width:20;stroke-linecap:round;stroke-miterlimit:4;stroke-opacity:1;stroke-dasharray:none" />
      <path
         d="m 359.13461,452.83664 c 0,17.57359 -37.32288,31.8198 -83.36297,31.8198 -46.0401,0 -83.36297,-14.24621 -83.36297,-31.8198 0,-17.57359 37.32287,-31.81981 83.36297,-31.81981 46.04009,0 83.36297,14.24622 83.36297,31.81981 z"
         sodipodi:ry="31.819805"
         sodipodi:rx="83.362968"
         sodipodi:cy="452.83664"
         sodipodi:cx="275.77164"
         id="path2998"
         style="fill:#9c9c9c;fill-opacity:1;stroke:#1b1b1b;stroke-width:20;stroke-linecap:round;stroke-miterlimit:4;stroke-opacity:1;stroke-dasharray:none"
         sodipodi:type="arc"
         transform="translate(109.64286,13.214286)" />
    </g>
    <path
       style="fill:#ccff00;fill-opacity:1;stroke:#1b1b1b;stroke-width:20;stroke-linecap:round;stroke-miterlimit:4;stroke-opacity:1;stroke-dasharray:none"
       d="m 304.65323,650.08656 c 0.51123,95.80423 -0.23438,103.43341 -1,198.59826 0,17.57359 38.45419,31.84375 85.875,31.84375 47.42081,0 80.46875,-14.27016 80.46875,-31.84375 0.57541,-95.036 2.34375,-103.25293 2.34375,-198.59826 m -1.40625,0 c -5.7788,15.42022 -40.50343,27.28125 -82.5,27.28125 -41.99657,0 -76.7212,-11.86103 -82.5,-27.28125"
       id="path3014"
       inkscape:connector-curvature="0"
       sodipodi:nodetypes="ccscccsc"
       inkscape:export-filename="/home/tomm/LudumDare27/images/battery1.png"
       inkscape:export-xdpi="36.59"
       inkscape:export-ydpi="36.59" />
    <g
       transform="matrix(0.25419188,0,0,0.09478251,288.98118,486.78661)"
       id="g3025"
       style="fill:#b4b4b4;fill-opacity:1;stroke:#555555;stroke-opacity:1"
       inkscape:export-filename="/home/tomm/LudumDare27/images/battery1.png"
       inkscape:export-xdpi="36.59"
       inkscape:export-ydpi="36.59">
      <path
         style="fill:#b4b4b4;fill-opacity:1;stroke:#555555;stroke-width:32.75267028999999752;stroke-linecap:round;stroke-miterlimit:4;stroke-opacity:1;stroke-dasharray:none"
         d="m 301.62054,470.58929 c 0.51123,95.80423 -0.23438,193.02265 -1,288.1875 0,17.57359 38.45419,31.84375 85.875,31.84375 47.42081,0 80.48661,-14.27016 80.48661,-31.84375 0.57541,-95.036 2.32589,-192.84217 2.32589,-288.1875 z"
         id="path3027"
         inkscape:connector-curvature="0"
         sodipodi:nodetypes="ccsccc" />
      <path
         transform="translate(109.64286,13.214286)"
         sodipodi:type="arc"
         style="fill:#b4b4b4;fill-opacity:1;stroke:#555555;stroke-width:32.75267028999999752;stroke-linecap:round;stroke-miterlimit:4;stroke-opacity:1;stroke-dasharray:none"
         id="path3029"
         sodipodi:cx="275.77164"
         sodipodi:cy="452.83664"
         sodipodi:rx="83.362968"
         sodipodi:ry="31.819805"
         d="m 359.13461,452.83664 c 0,17.57359 -37.32288,31.8198 -83.36297,31.8198 -46.0401,0 -83.36297,-14.24621 -83.36297,-31.8198 0,-17.57359 37.32287,-31.81981 83.36297,-31.81981 46.04009,0 83.36297,14.24622 83.36297,31.81981 z" />
    </g>
    <path
       id="path5119"
       style="fill:#ffd42a;stroke:#000000;stroke-width:5.03041744;stroke-linecap:round;stroke-linejoin:round;stroke-miterlimit:4;stroke-opacity:1;stroke-dasharray:none"
       d="m 384.13931,775.72278 -37.34895,-0.76222 45.47933,-46.87674 -9.14668,34.17302 37.8571,1.27037 -56.02342,54.49898 z"
       inkscape:connector-curvature="0"
       sodipodi:nodetypes="ccccccc"
       inkscape:export-filename="/home/tomm/LudumDare27/images/battery1.png"
       inkscape:export-xdpi="36.59"
       inkscape:export-ydpi="36.59" />
    <g
       style="stroke:#1b1b1b;stroke-opacity:1"
       inkscape:export-ydpi="36.59"
       inkscape:export-xdpi="36.59"
       inkscape:export-filename="/home/tomm/LudumDare27/images/battery2.png"
       transform="matrix(0.96592583,0.25881905,-0.25881905,0.96592583,-156.67253,31.342895)"
       id="g5716">
      <path
         style="fill:#9c9c9c;fill-opacity:1;stroke:#1b1b1b;stroke-width:20;stroke-linecap:round;stroke-miterlimit:4;stroke-opacity:1;stroke-dasharray:none"
         d="m 301.62054,470.58929 c 0.51123,95.80423 -0.23438,193.02265 -1,288.1875 0,17.57359 38.45419,31.84375 85.875,31.84375 47.42081,0 80.48661,-14.27016 80.48661,-31.84375 0.57541,-95.036 2.32589,-192.84217 2.32589,-288.1875 z"
         id="path5718"
         inkscape:connector-curvature="0"
         sodipodi:nodetypes="ccsccc" />
      <path
         transform="translate(109.64286,13.214286)"
         sodipodi:type="arc"
         style="fill:#9c9c9c;fill-opacity:1;stroke:#1b1b1b;stroke-width:20;stroke-linecap:round;stroke-miterlimit:4;stroke-opacity:1;stroke-dasharray:none"
         id="path5720"
         sodipodi:cx="275.77164"
         sodipodi:cy="452.83664"
         sodipodi:rx="83.362968"
         sodipodi:ry="31.819805"
         d="m 359.13461,452.83664 c 0,17.57359 -37.32288,31.8198 -83.36297,31.8198 -46.0401,0 -83.36297,-14.24621 -83.36297,-31.8198 0,-17.57359 37.32287,-31.81981 83.36297,-31.81981 46.04009,0 83.36297,14.24622 83.36297,31.81981 z" />
    </g>
    <path
       inkscape:export-ydpi="36.59"
       inkscape:export-xdpi="36.59"
       inkscape:export-filename="/home/tomm/LudumDare27/images/battery2.png"
       sodipodi:nodetypes="ccscccsc"
       inkscape:connector-curvature="0"
       id="path5722"
       d="m -10.314332,650.49894 c -24.30215,92.6721 -26.99693,99.84834 -52.36694,191.57237 -4.54838,16.97479 28.90212,40.71138 74.70711,52.98479 45.80498,12.27341 81.42023,7.04293 85.96861,-9.93186 25.152932,-91.6488 28.987722,-99.12806 53.664902,-191.22458 m -1.35833,-0.36396 c -9.57294,13.39912 -46.18422,15.8686 -86.749792,4.99909 -40.56557,-10.86951 -71.0371296,-31.31378 -72.6279696,-47.70423"
       style="fill:#ccff00;fill-opacity:1;stroke:#1b1b1b;stroke-width:20;stroke-linecap:round;stroke-miterlimit:4;stroke-opacity:1;stroke-dasharray:none" />
    <g
       inkscape:export-ydpi="36.59"
       inkscape:export-xdpi="36.59"
       inkscape:export-filename="/home/tomm/LudumDare27/images/battery2.png"
       style="fill:#b4b4b4;fill-opacity:1;stroke:#555555;stroke-opacity:1"
       id="g5724"
       transform="matrix(0.2455305,0.0657897,-0.02453152,0.09155287,16.812758,488.70708)">
      <path
         sodipodi:nodetypes="ccsccc"
         inkscape:connector-curvature="0"
         id="path5726"
         d="m 301.62054,470.58929 c 0.51123,95.80423 -0.23438,193.02265 -1,288.1875 0,17.57359 38.45419,31.84375 85.875,31.84375 47.42081,0 80.48661,-14.27016 80.48661,-31.84375 0.57541,-95.036 2.32589,-192.84217 2.32589,-288.1875 z"
         style="fill:#b4b4b4;fill-opacity:1;stroke:#555555;stroke-width:32.75267029;stroke-linecap:round;stroke-miterlimit:4;stroke-opacity:1;stroke-dasharray:none" />
      <path
         d="m 359.13461,452.83664 c 0,17.57359 -37.32288,31.8198 -83.36297,31.8198 -46.0401,0 -83.36297,-14.24621 -83.36297,-31.8198 0,-17.57359 37.32287,-31.81981 83.36297,-31.81981 46.04009,0 83.36297,14.24622 83.36297,31.81981 z"
         sodipodi:ry="31.819805"
         sodipodi:rx="83.362968"
         sodipodi:cy="452.83664"
         sodipodi:cx="275.77164"
         id="path5728"
         style="fill:#b4b4b4;fill-opacity:1;stroke:#555555;stroke-width:32.75267029;stroke-linecap:round;stroke-miterlimit:4;stroke-opacity:1;stroke-dasharray:none"
         sodipodi:type="arc"
         transform="translate(109.64286,13.214286)" />
    </g>
    <path
       inkscape:export-ydpi="36.59"
       inkscape:export-xdpi="36.59"
       inkscape:export-filename="/home/tomm/LudumDare27/images/battery2.png"
       sodipodi:nodetypes="ccccccc"
       inkscape:connector-curvature="0"
       d="M 33.946278,792.42672 -1.9327616,782.02386 54.129488,748.51532 36.449848,779.15659 72.688198,790.18181 4.4683584,828.32385 z"
       style="fill:#ffd42a;stroke:#000000;stroke-width:5.03041744;stroke-linecap:round;stroke-linejoin:round;stroke-miterlimit:4;stroke-opacity:1;stroke-dasharray:none"
       id="path5730" />
  </g>
</svg>
