<?xml version="1.0" encoding="UTF-8" standalone="no"?>
<!-- Created with Inkscape (http://www.inkscape.org/) -->

<svg
   xmlns:dc="http://purl.org/dc/elements/1.1/"
   xmlns:cc="http://creativecommons.org/ns#"
   xmlns:rdf="http://www.w3.org/1999/02/22-rdf-syntax-ns#"
   xmlns:svg="http://www.w3.org/2000/svg"
   xmlns="http://www.w3.org/2000/svg"
   xmlns:sodipodi="http://sodipodi.sourceforge.net/DTD/sodipodi-0.dtd"
   xmlns:inkscape="http://www.inkscape.org/namespaces/inkscape"
   width="744.09448819"
   height="1052.3622047"
   id="svg2"
   version="1.1"
   inkscape:version="0.48.4 r9939"
   sodipodi:docname="robot.svg"
   inkscape:export-filename="/home/tomm/LudumDare27/images/robot.png"
   inkscape:export-xdpi="39.779999"
   inkscape:export-ydpi="39.779999">
  <defs
     id="defs4" />
  <sodipodi:namedview
     id="base"
     pagecolor="#ffffff"
     bordercolor="#666666"
     borderopacity="1.0"
     inkscape:pageopacity="0.0"
     inkscape:pageshadow="2"
     inkscape:zoom="0.98994949"
     inkscape:cx="335.89015"
     inkscape:cy="621.73368"
     inkscape:document-units="px"
     inkscape:current-layer="layer1"
     showgrid="false"
     inkscape:window-width="2495"
     inkscape:window-height="1416"
     inkscape:window-x="1985"
     inkscape:window-y="24"
     inkscape:window-maximized="1" />
  <metadata
     id="metadata7">
    <rdf:RDF>
      <cc:Work
         rdf:about="">
        <dc:format>image/svg+xml</dc:format>
        <dc:type
           rdf:resource="http://purl.org/dc/dcmitype/StillImage" />
        <dc:title></dc:title>
      </cc:Work>
    </rdf:RDF>
  </metadata>
  <g
     inkscape:label="Layer 1"
     inkscape:groupmode="layer"
     id="layer1">
    <rect
       style="fill:#ffaaaa;fill-opacity:1;stroke:#000000;stroke-width:20;stroke-linecap:round;stroke-linejoin:round;stroke-miterlimit:4;stroke-opacity:1;stroke-dasharray:none;opacity:0"
       id="rect7448"
       width="35.355339"
       height="431.33514"
       x="725.28955"
       y="272.52441"
       inkscape:export-filename="/home/tomm/LudumDare27/images/robot2.png"
       inkscape:export-xdpi="37.549999"
       inkscape:export-ydpi="37.549999" />
    <path
       style="fill:#ffffff;stroke:#000000;stroke-width:20;stroke-linecap:butt;stroke-linejoin:round;stroke-miterlimit:4;stroke-opacity:1;stroke-dasharray:none;fill-opacity:1"
       d="m 300.12255,604.43325 c 0,0 62.14286,-67.85715 70,-187.14286 l 74.28571,16.42857 c -7.85714,119.28571 -70,187.14286 -70,187.14286 z"
       id="path3807"
       inkscape:connector-curvature="0"
       sodipodi:nodetypes="ccccc"
       inkscape:export-filename="/home/tomm/LudumDare27/images/robot.png"
       inkscape:export-xdpi="37.549999"
       inkscape:export-ydpi="37.549999" />
    <path
       style="fill:#4d4d4d;stroke:#000000;stroke-opacity:1;stroke-width:20;stroke-miterlimit:4;stroke-dasharray:20,20;stroke-dashoffset:0;stroke-linecap:round;marker-start:none"
       d="m 275.71875,588.0625 c -27.61373,-9.46921 -52.875,23.68281 -52.875,52.875 0,29.19219 23.68281,52.84375 52.875,52.84375 l 150,0 c 14.99059,0 27.125,-12.13441 27.125,-27.125 0,-14.99059 -12.94497,-22.29368 -27.125,-27.15625 z"
       id="path2985"
       inkscape:connector-curvature="0"
       sodipodi:nodetypes="sssssss"
       inkscape:export-filename="/home/tomm/LudumDare27/images/robot.png"
       inkscape:export-xdpi="37.549999"
       inkscape:export-ydpi="37.549999" />
    <path
       sodipodi:type="arc"
       style="fill:#ffffff;stroke:#000000;stroke-width:20;stroke-miterlimit:4;stroke-opacity:1;stroke-dasharray:none"
       id="path3799"
       sodipodi:cx="278.57144"
       sodipodi:cy="640.93359"
       sodipodi:rx="12.857142"
       sodipodi:ry="12.857142"
       d="m 291.42858,640.93359 a 12.857142,12.857142 0 1 1 -25.71428,0 12.857142,12.857142 0 1 1 25.71428,0 z"
       inkscape:export-filename="/home/tomm/LudumDare27/images/robot.png"
       inkscape:export-xdpi="37.549999"
       inkscape:export-ydpi="37.549999" />
    <path
       sodipodi:type="arc"
       style="fill:#ffffff;stroke:#000000;stroke-width:20;stroke-miterlimit:4;stroke-opacity:1;stroke-dasharray:none"
       id="path3803"
       sodipodi:cx="389.64285"
       sodipodi:cy="658.79077"
       sodipodi:rx="4.6428571"
       sodipodi:ry="5"
       d="m 394.28571,658.79077 a 4.6428571,5 0 1 1 -9.28571,0 4.6428571,5 0 1 1 9.28571,0 z"
       inkscape:export-filename="/home/tomm/LudumDare27/images/robot.png"
       inkscape:export-xdpi="37.549999"
       inkscape:export-ydpi="37.549999" />
    <path
       style="fill:none;stroke:#000000;stroke-width:20;stroke-linecap:round;stroke-linejoin:bevel;stroke-miterlimit:4;stroke-opacity:1"
       d="m 415.24335,572.55039 c -7.06543,16.28538 -32.88933,20.76852 -57.6793,10.01337 -24.78996,-10.75514 -39.15854,-32.67582 -32.09312,-48.96121"
       id="path3811"
       inkscape:connector-curvature="0"
       sodipodi:nodetypes="csc"
       inkscape:export-filename="/home/tomm/LudumDare27/images/robot.png"
       inkscape:export-xdpi="37.549999"
       inkscape:export-ydpi="37.549999" />
    <path
       sodipodi:nodetypes="csc"
       inkscape:connector-curvature="0"
       id="path3825"
       d="m 433.10049,531.8361 c -7.06543,16.28538 -32.88933,20.76852 -57.6793,10.01337 -24.78996,-10.75514 -39.15854,-32.67582 -32.09312,-48.96121"
       style="fill:none;stroke:#000000;stroke-width:20;stroke-linecap:round;stroke-linejoin:bevel;stroke-miterlimit:4;stroke-opacity:1"
       inkscape:export-filename="/home/tomm/LudumDare27/images/robot.png"
       inkscape:export-xdpi="37.549999"
       inkscape:export-ydpi="37.549999" />
    <path
       style="fill:none;stroke:#000000;stroke-width:20;stroke-linecap:round;stroke-linejoin:bevel;stroke-miterlimit:4;stroke-opacity:1"
       d="m 448.10049,484.69324 c -7.06543,16.28538 -32.88933,20.76852 -57.6793,10.01337 -24.78996,-10.75514 -39.15854,-32.67582 -32.09312,-48.96121"
       id="path3827"
       inkscape:connector-curvature="0"
       sodipodi:nodetypes="csc"
       inkscape:export-filename="/home/tomm/LudumDare27/images/robot.png"
       inkscape:export-xdpi="37.549999"
       inkscape:export-ydpi="37.549999" />
    <path
       sodipodi:type="arc"
       style="fill:#ffffff;fill-opacity:1;stroke:#000000;stroke-width:20;stroke-linecap:round;stroke-linejoin:bevel;stroke-miterlimit:4;stroke-opacity:1;stroke-dasharray:none"
       id="path3831"
       sodipodi:cx="353.57144"
       sodipodi:cy="368.79074"
       sodipodi:rx="62.857143"
       sodipodi:ry="62.857143"
       d="m 416.42859,368.79074 a 62.857143,62.857143 0 1 1 -125.71429,0 62.857143,62.857143 0 1 1 125.71429,0 z"
       transform="matrix(1.3823529,0,0,1.3823529,-69.873627,-150.09959)"
       inkscape:export-filename="/home/tomm/LudumDare27/images/robot.png"
       inkscape:export-xdpi="37.549999"
       inkscape:export-ydpi="37.549999" />
    <path
       sodipodi:type="arc"
       style="fill:#800000;fill-opacity:1;stroke:#000000;stroke-width:20;stroke-linecap:round;stroke-linejoin:bevel;stroke-miterlimit:4;stroke-opacity:1;stroke-dasharray:none"
       id="path3833"
       sodipodi:cx="452.5"
       sodipodi:cy="357.00504"
       sodipodi:rx="18.214285"
       sodipodi:ry="18.214285"
       d="m 470.71428,357.00504 a 18.214285,18.214285 0 1 1 -36.42856,0 18.214285,18.214285 0 1 1 36.42856,0 z"
       transform="translate(4.1827456,-10.101525)"
       inkscape:export-xdpi="37.549999"
       inkscape:export-ydpi="37.549999"
       inkscape:export-filename="/home/tomm/LudumDare27/images/robot.png" />
    <path
       style="fill:#ffffff;fill-opacity:1;stroke:#000000;stroke-width:20;stroke-linecap:butt;stroke-linejoin:round;stroke-miterlimit:4;stroke-opacity:1;stroke-dasharray:none"
       d="m -120.64814,598.61516 c 0,0 62.142856,-67.85715 69.999996,-187.14286 l 74.28571,16.42857 c -7.85714,119.28571 -70,187.14286 -70,187.14286 z"
       id="path3807-6"
       inkscape:connector-curvature="0"
       sodipodi:nodetypes="ccccc"
       inkscape:export-filename="/home/tomm/LudumDare27/images/robotjump.png"
       inkscape:export-xdpi="37.514816"
       inkscape:export-ydpi="37.514816" />
    <path
       style="fill:#4d4d4d;stroke:#000000;stroke-width:20;stroke-linecap:round;stroke-miterlimit:4;stroke-opacity:1;stroke-dasharray:20, 20;stroke-dashoffset:0;marker-start:none"
       d="m -55.362834,595.52331 c -7.616608,-28.18105 -49.228966,-30.54752 -73.415586,-14.20152 -24.18663,16.34598 -30.52162,49.21145 -14.17563,73.39807 l 83.991565,124.27959 c 8.393889,12.42016 25.242208,15.6793 37.66237,7.28541 12.4201625,-8.39389 11.22254,-23.20851 7.311309,-37.67986 z"
       id="path2985-3"
       inkscape:connector-curvature="0"
       sodipodi:nodetypes="sssssss"
       inkscape:transform-center-x="14.142136"
       inkscape:transform-center-y="-52.527933"
       inkscape:export-filename="/home/tomm/LudumDare27/images/robotjump.png"
       inkscape:export-xdpi="37.514816"
       inkscape:export-ydpi="37.514816" />
    <path
       transform="matrix(0.55994383,0.82853058,-0.82853058,0.55994383,277.47791,37.799929)"
       sodipodi:type="arc"
       style="fill:#ffffff;stroke:#000000;stroke-width:20;stroke-miterlimit:4;stroke-opacity:1;stroke-dasharray:none"
       id="path3799-3"
       sodipodi:cx="278.57144"
       sodipodi:cy="640.93359"
       sodipodi:rx="12.857142"
       sodipodi:ry="12.857142"
       d="m 291.42858,640.93359 a 12.857142,12.857142 0 1 1 -25.71428,0 12.857142,12.857142 0 1 1 25.71428,0 z"
       inkscape:transform-center-x="30.05037"
       inkscape:transform-center-y="-106.07843"
       inkscape:export-filename="/home/tomm/LudumDare27/images/robotjump.png"
       inkscape:export-xdpi="37.514816"
       inkscape:export-ydpi="37.514816" />
    <path
       transform="matrix(0.55994383,0.82853058,-0.82853058,0.55994383,277.47791,37.799929)"
       sodipodi:type="arc"
       style="fill:#ffffff;stroke:#000000;stroke-width:20;stroke-miterlimit:4;stroke-opacity:1;stroke-dasharray:none"
       id="path3803-7"
       sodipodi:cx="389.64285"
       sodipodi:cy="658.79077"
       sodipodi:rx="4.6428571"
       sodipodi:ry="5"
       d="m 394.28571,658.79077 a 4.6428571,5 0 1 1 -9.28571,0 4.6428571,5 0 1 1 9.28571,0 z"
       inkscape:transform-center-x="-17.348164"
       inkscape:transform-center-y="-4.0533535"
       inkscape:export-filename="/home/tomm/LudumDare27/images/robotjump.png"
       inkscape:export-xdpi="37.514816"
       inkscape:export-ydpi="37.514816" />
    <path
       style="fill:none;stroke:#000000;stroke-width:20;stroke-linecap:round;stroke-linejoin:bevel;stroke-miterlimit:4;stroke-opacity:1"
       d="m -5.5273443,566.7323 c -7.0654297,16.28538 -32.8893297,20.76852 -57.6792997,10.01337 -24.78996,-10.75514 -39.158536,-32.67582 -32.09312,-48.96121"
       id="path3811-3"
       inkscape:connector-curvature="0"
       sodipodi:nodetypes="csc"
       inkscape:export-filename="/home/tomm/LudumDare27/images/robotjump.png"
       inkscape:export-xdpi="37.514816"
       inkscape:export-ydpi="37.514816" />
    <path
       sodipodi:nodetypes="csc"
       inkscape:connector-curvature="0"
       id="path3825-7"
       d="m 12.329796,526.01801 c -7.0654303,16.28538 -32.88933,20.76852 -57.6793,10.01337 -24.78996,-10.75514 -39.15854,-32.67582 -32.09312,-48.96121"
       style="fill:none;stroke:#000000;stroke-width:20;stroke-linecap:round;stroke-linejoin:bevel;stroke-miterlimit:4;stroke-opacity:1"
       inkscape:export-filename="/home/tomm/LudumDare27/images/robotjump.png"
       inkscape:export-xdpi="37.514816"
       inkscape:export-ydpi="37.514816" />
    <path
       style="fill:none;stroke:#000000;stroke-width:20;stroke-linecap:round;stroke-linejoin:bevel;stroke-miterlimit:4;stroke-opacity:1"
       d="m 27.329796,478.87515 c -7.06543,16.28538 -32.8893303,20.76852 -57.6793,10.01337 -24.78996,-10.75514 -39.15854,-32.67582 -32.09312,-48.96121"
       id="path3827-5"
       inkscape:connector-curvature="0"
       sodipodi:nodetypes="csc"
       inkscape:export-filename="/home/tomm/LudumDare27/images/robotjump.png"
       inkscape:export-xdpi="37.514816"
       inkscape:export-ydpi="37.514816" />
    <path
       sodipodi:type="arc"
       style="fill:#ffffff;fill-opacity:1;stroke:#000000;stroke-width:20;stroke-linecap:round;stroke-linejoin:bevel;stroke-miterlimit:4;stroke-opacity:1;stroke-dasharray:none"
       id="path3831-6"
       sodipodi:cx="353.57144"
       sodipodi:cy="368.79074"
       sodipodi:rx="62.857143"
       sodipodi:ry="62.857143"
       d="m 416.42859,368.79074 a 62.857143,62.857143 0 1 1 -125.71429,0 62.857143,62.857143 0 1 1 125.71429,0 z"
       transform="matrix(1.3823529,0,0,1.3823529,-490.64432,-155.91768)"
       inkscape:export-filename="/home/tomm/LudumDare27/images/robotjump.png"
       inkscape:export-xdpi="37.514816"
       inkscape:export-ydpi="37.514816" />
    <path
       sodipodi:type="arc"
       style="fill:#800000;fill-opacity:1;stroke:#000000;stroke-width:20;stroke-linecap:round;stroke-linejoin:bevel;stroke-miterlimit:4;stroke-opacity:1;stroke-dasharray:none"
       id="path3833-3"
       sodipodi:cx="452.5"
       sodipodi:cy="357.00504"
       sodipodi:rx="18.214285"
       sodipodi:ry="18.214285"
       d="m 470.71428,357.00504 a 18.214285,18.214285 0 1 1 -36.42856,0 18.214285,18.214285 0 1 1 36.42856,0 z"
       transform="translate(-416.58794,-15.91961)"
       inkscape:export-filename="/home/tomm/LudumDare27/images/robotjump.png"
       inkscape:export-xdpi="37.514816"
       inkscape:export-ydpi="37.514816" />
    <path
       style="fill:#ffffff;fill-opacity:1;stroke:#000000;stroke-width:20;stroke-linecap:butt;stroke-linejoin:round;stroke-miterlimit:4;stroke-opacity:1;stroke-dasharray:none"
       d="m -354.71264,478.41186 c 0,0 -88.01875,26.81471 -155.45768,125.52036 l -55.60191,-51.92969 c 67.43894,-98.70565 155.45768,-125.52036 155.45768,-125.52036 z"
       id="path3807-5"
       inkscape:connector-curvature="0"
       sodipodi:nodetypes="ccccc"
       inkscape:export-filename="/home/tomm/LudumDare27/images/robotdead.png"
       inkscape:export-xdpi="37.549999"
       inkscape:export-ydpi="37.549999" />
    <path
       style="fill:#4d4d4d;stroke:#000000;stroke-width:20;stroke-linecap:round;stroke-miterlimit:4;stroke-opacity:1;stroke-dasharray:20, 20;stroke-dashoffset:0;marker-start:none"
       d="m -569.31602,554.9703 c -27.61373,-9.46921 -52.875,23.68281 -52.875,52.875 0,29.19219 23.68281,52.84375 52.875,52.84375 l 150,0 c 14.99059,0 27.125,-12.13441 27.125,-27.125 0,-14.99059 -12.94497,-22.29368 -27.125,-27.15625 z"
       id="path2985-39"
       inkscape:connector-curvature="0"
       sodipodi:nodetypes="sssssss"
       inkscape:export-filename="/home/tomm/LudumDare27/images/robotdead.png"
       inkscape:export-xdpi="37.549999"
       inkscape:export-ydpi="37.549999" />
    <path
       transform="translate(-845.03476,-33.092205)"
       sodipodi:type="arc"
       style="fill:#ffffff;stroke:#000000;stroke-width:20;stroke-miterlimit:4;stroke-opacity:1;stroke-dasharray:none"
       id="path3799-9"
       sodipodi:cx="278.57144"
       sodipodi:cy="640.93359"
       sodipodi:rx="12.857142"
       sodipodi:ry="12.857142"
       d="m 291.42858,640.93359 a 12.857142,12.857142 0 1 1 -25.71428,0 12.857142,12.857142 0 1 1 25.71428,0 z"
       inkscape:export-filename="/home/tomm/LudumDare27/images/robotdead.png"
       inkscape:export-xdpi="37.549999"
       inkscape:export-ydpi="37.549999" />
    <path
       transform="translate(-845.03476,-33.092205)"
       sodipodi:type="arc"
       style="fill:#ffffff;stroke:#000000;stroke-width:20;stroke-miterlimit:4;stroke-opacity:1;stroke-dasharray:none"
       id="path3803-2"
       sodipodi:cx="389.64285"
       sodipodi:cy="658.79077"
       sodipodi:rx="4.6428571"
       sodipodi:ry="5"
       d="m 394.28571,658.79077 a 4.6428571,5 0 1 1 -9.28571,0 4.6428571,5 0 1 1 9.28571,0 z"
       inkscape:export-filename="/home/tomm/LudumDare27/images/robotdead.png"
       inkscape:export-xdpi="37.549999"
       inkscape:export-ydpi="37.549999" />
    <path
       style="fill:none;stroke:#000000;stroke-width:20;stroke-linecap:round;stroke-linejoin:bevel;stroke-miterlimit:4;stroke-opacity:1"
       d="m -470.04597,447.30658 c 14.36665,-10.42753 38.88074,-1.1522 54.75375,20.71703 15.87302,21.86922 17.09417,48.05091 2.72752,58.47845"
       id="path3811-1"
       inkscape:connector-curvature="0"
       sodipodi:nodetypes="csc"
       inkscape:export-filename="/home/tomm/LudumDare27/images/robotdead.png"
       inkscape:export-xdpi="37.549999"
       inkscape:export-ydpi="37.549999" />
    <path
       sodipodi:nodetypes="csc"
       inkscape:connector-curvature="0"
       id="path3825-4"
       d="m -506.12968,473.27766 c 14.36665,-10.42753 38.88074,-1.1522 54.75376,20.71703 15.87301,21.86922 17.09416,48.05091 2.72752,58.47845"
       style="fill:none;stroke:#000000;stroke-width:20;stroke-linecap:round;stroke-linejoin:bevel;stroke-miterlimit:4;stroke-opacity:1"
       inkscape:export-filename="/home/tomm/LudumDare27/images/robotdead.png"
       inkscape:export-xdpi="37.549999"
       inkscape:export-ydpi="37.549999" />
    <path
       style="fill:none;stroke:#000000;stroke-width:20;stroke-linecap:round;stroke-linejoin:bevel;stroke-miterlimit:4;stroke-opacity:1"
       d="m -543.02332,506.23685 c 14.36665,-10.42752 38.88074,-1.15219 54.75376,20.71704 15.87301,21.86922 17.09416,48.05091 2.72752,58.47845"
       id="path3827-1"
       inkscape:connector-curvature="0"
       sodipodi:nodetypes="csc"
       inkscape:export-filename="/home/tomm/LudumDare27/images/robotdead.png"
       inkscape:export-xdpi="37.549999"
       inkscape:export-ydpi="37.549999" />
    <path
       sodipodi:type="arc"
       style="fill:#ffffff;fill-opacity:1;stroke:#000000;stroke-width:20;stroke-linecap:round;stroke-linejoin:bevel;stroke-miterlimit:4;stroke-opacity:1;stroke-dasharray:none"
       id="path3831-0"
       sodipodi:cx="353.57144"
       sodipodi:cy="368.79074"
       sodipodi:rx="62.857143"
       sodipodi:ry="62.857143"
       d="m 416.42859,368.79074 a 62.857143,62.857143 0 1 1 -125.71429,0 62.857143,62.857143 0 1 1 125.71429,0 z"
       transform="matrix(1.3823529,0,0,1.3823529,-801.7713,-59.953193)"
       inkscape:export-filename="/home/tomm/LudumDare27/images/robotdead.png"
       inkscape:export-xdpi="37.549999"
       inkscape:export-ydpi="37.549999" />
    <path
       sodipodi:type="arc"
       style="fill:#800000;fill-opacity:1;stroke:#000000;stroke-width:20;stroke-linecap:round;stroke-linejoin:bevel;stroke-miterlimit:4;stroke-opacity:1;stroke-dasharray:none"
       id="path3833-7"
       sodipodi:cx="452.5"
       sodipodi:cy="357.00504"
       sodipodi:rx="18.214285"
       sodipodi:ry="18.214285"
       d="m 470.71428,357.00504 a 18.214285,18.214285 0 1 1 -36.42856,0 18.214285,18.214285 0 1 1 36.42856,0 z"
       transform="translate(-731.75553,111.35962)"
       inkscape:export-xdpi="37.549999"
       inkscape:export-ydpi="37.549999"
       inkscape:export-filename="/home/tomm/LudumDare27/images/robotdead.png" />
    <rect
       style="fill:none;stroke:#000000;stroke-width:20;stroke-linecap:round;stroke-linejoin:round;stroke-miterlimit:4;stroke-opacity:1;stroke-dasharray:none;opacity:0"
       id="rect5098"
       width="78.791901"
       height="417.19299"
       x="-532.3504"
       y="242.21985"
       inkscape:export-filename="/home/tomm/LudumDare27/images/robotdead.png"
       inkscape:export-xdpi="37.549999"
       inkscape:export-ydpi="37.549999" />
    <path
       style="fill:#ffffff;fill-opacity:1;stroke:#000000;stroke-width:20;stroke-linecap:round;stroke-linejoin:round;stroke-miterlimit:4;stroke-opacity:1;stroke-dasharray:none"
       d="m -402.9182,130.72102 c -12.87037,0 -23.54181,9.47928 -25.66724,21.92932 -4.5964,-4.10329 -10.62348,-6.58452 -17.2102,-6.58452 -14.39923,0 -26.07437,11.85252 -26.07437,26.47168 0,14.56914 11.59507,26.39096 25.92633,26.47169 -0.0603,0.73479 -0.0925,1.4824 -0.0925,2.23301 0,14.61916 11.67514,26.47169 26.07437,26.47169 5.90147,0 11.32309,-2.00699 15.69274,-5.36305 6.19452,5.198 14.13475,8.32131 22.79888,8.32131 19.78212,0 35.80831,-16.27374 35.80831,-36.35801 l 0,-0.91611 c -0.45086,-18.14127 -13.9369,-32.88831 -31.21893,-35.13653 0.0137,-0.35201 0.037,-0.71339 0.037,-1.06879 l 0,-0.668 c -0.35674,-14.35449 -11.93133,-25.80369 -26.07438,-25.80369 z"
       id="path6875"
       inkscape:connector-curvature="0"
       inkscape:export-filename="/home/tomm/LudumDare27/images/cloud1.png"
       inkscape:export-xdpi="39.779999"
       inkscape:export-ydpi="39.779999" />
    <path
       sodipodi:type="arc"
       style="fill:#ffffff;fill-opacity:1;stroke:#000000;stroke-width:33.25645828;stroke-linecap:round;stroke-linejoin:round;stroke-miterlimit:4;stroke-opacity:1;stroke-dasharray:none"
       id="path6885"
       sodipodi:cx="-378.80722"
       sodipodi:cy="137.16397"
       sodipodi:rx="39.39595"
       sodipodi:ry="39.39595"
       d="m -339.41127,137.16397 a 39.39595,39.39595 0 1 1 -0.0125,-0.99372"
       sodipodi:start="0"
       sodipodi:end="6.2579587"
       sodipodi:open="true"
       transform="matrix(0.59217877,0,0,0.61073826,-81.850581,147.51992)"
       inkscape:export-filename="/home/tomm/LudumDare27/images/cloud1.png"
       inkscape:export-xdpi="39.779999"
       inkscape:export-ydpi="39.779999" />
    <path
       sodipodi:open="true"
       sodipodi:end="6.2579587"
       sodipodi:start="0"
       d="m -339.41127,137.16397 a 39.39595,39.39595 0 1 1 -0.0125,-0.99372"
       sodipodi:ry="39.39595"
       sodipodi:rx="39.39595"
       sodipodi:cy="137.16397"
       sodipodi:cx="-378.80722"
       id="path6887"
       style="fill:#ffffff;fill-opacity:1;stroke:#000000;stroke-width:33.25645828;stroke-linecap:round;stroke-linejoin:round;stroke-miterlimit:4;stroke-opacity:1;stroke-dasharray:none"
       sodipodi:type="arc"
       transform="matrix(0.59217877,0,0,0.61073826,-249.34403,11.793388)"
       inkscape:export-filename="/home/tomm/LudumDare27/images/cloud1.png"
       inkscape:export-xdpi="39.779999"
       inkscape:export-ydpi="39.779999" />
    <path
       inkscape:export-ydpi="37.549999"
       inkscape:export-xdpi="37.549999"
       inkscape:export-filename="/home/tomm/LudumDare27/images/robot2.png"
       sodipodi:nodetypes="ccccc"
       inkscape:connector-curvature="0"
       id="path7430"
       d="m 676.90945,613.52462 c 0,0 62.14286,-67.85715 70,-187.14286 l 74.28571,16.42857 c -7.85714,119.28571 -70,187.14286 -70,187.14286 z"
       style="fill:#ffffff;fill-opacity:1;stroke:#000000;stroke-width:20;stroke-linecap:butt;stroke-linejoin:round;stroke-miterlimit:4;stroke-opacity:1;stroke-dasharray:none" />
    <path
       inkscape:export-ydpi="37.549999"
       inkscape:export-xdpi="37.549999"
       inkscape:export-filename="/home/tomm/LudumDare27/images/robot2.png"
       sodipodi:nodetypes="sssssss"
       inkscape:connector-curvature="0"
       id="path7432"
       d="m 652.50565,597.15387 c -27.61373,-9.46921 -52.875,23.68281 -52.875,52.875 0,29.19219 23.68281,52.84375 52.875,52.84375 l 150,0 c 14.99059,0 27.125,-12.13441 27.125,-27.125 0,-14.99059 -12.94497,-22.29368 -27.125,-27.15625 z"
       style="fill:#4d4d4d;stroke:#000000;stroke-width:20;stroke-linecap:round;stroke-miterlimit:4;stroke-opacity:1;stroke-dasharray:20, 20;stroke-dashoffset:0;marker-start:none" />
    <path
       inkscape:export-ydpi="37.549999"
       inkscape:export-xdpi="37.549999"
       inkscape:export-filename="/home/tomm/LudumDare27/images/robot2.png"
       d="m 291.42858,640.93359 a 12.857142,12.857142 0 1 1 -25.71428,0 12.857142,12.857142 0 1 1 25.71428,0 z"
       sodipodi:ry="12.857142"
       sodipodi:rx="12.857142"
       sodipodi:cy="640.93359"
       sodipodi:cx="278.57144"
       id="path7434"
       style="fill:#ffffff;stroke:#000000;stroke-width:20;stroke-miterlimit:4;stroke-opacity:1;stroke-dasharray:none"
       sodipodi:type="arc"
       transform="translate(376.7869,9.0913729)" />
    <path
       inkscape:export-ydpi="37.549999"
       inkscape:export-xdpi="37.549999"
       inkscape:export-filename="/home/tomm/LudumDare27/images/robot2.png"
       d="m 394.28571,658.79077 a 4.6428571,5 0 1 1 -9.28571,0 4.6428571,5 0 1 1 9.28571,0 z"
       sodipodi:ry="5"
       sodipodi:rx="4.6428571"
       sodipodi:cy="658.79077"
       sodipodi:cx="389.64285"
       id="path7436"
       style="fill:#ffffff;stroke:#000000;stroke-width:20;stroke-miterlimit:4;stroke-opacity:1;stroke-dasharray:none"
       sodipodi:type="arc"
       transform="translate(376.7869,9.0913729)" />
    <path
       inkscape:export-ydpi="37.549999"
       inkscape:export-xdpi="37.549999"
       inkscape:export-filename="/home/tomm/LudumDare27/images/robot2.png"
       sodipodi:nodetypes="csc"
       inkscape:connector-curvature="0"
       id="path7438"
       d="m 792.03025,581.64176 c -7.06543,16.28538 -32.88933,20.76852 -57.6793,10.01337 -24.78996,-10.75514 -39.15854,-32.67582 -32.09312,-48.96121"
       style="fill:none;stroke:#000000;stroke-width:20;stroke-linecap:round;stroke-linejoin:bevel;stroke-miterlimit:4;stroke-opacity:1" />
    <path
       inkscape:export-ydpi="37.549999"
       inkscape:export-xdpi="37.549999"
       inkscape:export-filename="/home/tomm/LudumDare27/images/robot2.png"
       style="fill:none;stroke:#000000;stroke-width:20;stroke-linecap:round;stroke-linejoin:bevel;stroke-miterlimit:4;stroke-opacity:1"
       d="m 809.88739,540.92747 c -7.06543,16.28538 -32.88933,20.76852 -57.6793,10.01337 -24.78996,-10.75514 -39.15854,-32.67582 -32.09312,-48.96121"
       id="path7440"
       inkscape:connector-curvature="0"
       sodipodi:nodetypes="csc" />
    <path
       inkscape:export-ydpi="37.549999"
       inkscape:export-xdpi="37.549999"
       inkscape:export-filename="/home/tomm/LudumDare27/images/robot2.png"
       sodipodi:nodetypes="csc"
       inkscape:connector-curvature="0"
       id="path7442"
       d="m 824.88739,493.78461 c -7.06543,16.28538 -32.88933,20.76852 -57.6793,10.01337 -24.78996,-10.75514 -39.15854,-32.67582 -32.09312,-48.96121"
       style="fill:none;stroke:#000000;stroke-width:20;stroke-linecap:round;stroke-linejoin:bevel;stroke-miterlimit:4;stroke-opacity:1" />
    <path
       inkscape:export-ydpi="37.549999"
       inkscape:export-xdpi="37.549999"
       inkscape:export-filename="/home/tomm/LudumDare27/images/robot2.png"
       transform="matrix(1.3823529,0,0,1.3823529,314.91327,-128.88639)"
       d="m 416.42859,368.79074 a 62.857143,62.857143 0 1 1 -125.71429,0 62.857143,62.857143 0 1 1 125.71429,0 z"
       sodipodi:ry="62.857143"
       sodipodi:rx="62.857143"
       sodipodi:cy="368.79074"
       sodipodi:cx="353.57144"
       id="path7444"
       style="fill:#ffffff;fill-opacity:1;stroke:#000000;stroke-width:20;stroke-linecap:round;stroke-linejoin:bevel;stroke-miterlimit:4;stroke-opacity:1;stroke-dasharray:none"
       sodipodi:type="arc" />
    <path
       inkscape:export-filename="/home/tomm/LudumDare27/images/robot2.png"
       inkscape:export-ydpi="37.549999"
       inkscape:export-xdpi="37.549999"
       transform="matrix(1.2218374,0,0,1.2218374,288.58821,-65.054944)"
       d="m 470.71428,357.00504 a 18.214285,18.214285 0 1 1 -36.42856,0 18.214285,18.214285 0 1 1 36.42856,0 z"
       sodipodi:ry="18.214285"
       sodipodi:rx="18.214285"
       sodipodi:cy="357.00504"
       sodipodi:cx="452.5"
       id="path7446"
       style="fill:#ffaaaa;fill-opacity:1;stroke:#000000;stroke-width:16.36878967;stroke-linecap:round;stroke-linejoin:bevel;stroke-miterlimit:4;stroke-opacity:1;stroke-dasharray:none"
       sodipodi:type="arc" />
  </g>
</svg>
